<svg width="15" height="9" viewBox="0 0 15 9" fill="none" xmlns="http://www.w3.org/2000/svg">
<path d="M2.50319e-05 1.5108C-0.0011145 1.31311 0.0366626 1.11715 0.111192 0.934136C0.185721 0.751126 0.295537 0.58467 0.43434 0.444314C0.573564 0.303526 0.739202 0.19178 0.921702 0.11552C1.1042 0.0392614 1.29995 -9.62316e-07 1.49766 -9.53674e-07C1.69536 -9.45032e-07 1.89111 0.0392614 2.07361 0.11552C2.25611 0.19178 2.42175 0.303526 2.56098 0.444315L7.48818 5.41623L12.4453 0.639587C12.7259 0.359821 13.1055 0.202791 13.5012 0.202791C13.8968 0.202791 14.2764 0.359821 14.557 0.639587C14.6974 0.779226 14.8088 0.945358 14.8848 1.1284C14.9609 1.31145 15 1.50778 15 1.70607C15 1.90436 14.9609 2.1007 14.8848 2.28374C14.8088 2.46678 14.6974 2.63291 14.557 2.77255L8.56648 8.57062C8.28653 8.84584 7.91015 9 7.51814 9C7.12613 9 6.74974 8.84584 6.46979 8.57062L0.479267 2.56226C0.334098 2.42744 0.217003 2.2651 0.134746 2.08463C0.0524893 1.90415 0.00670035 1.70912 2.50319e-05 1.5108Z" fill="#937261"/>
</svg>