<svg width="23" height="24" viewBox="0 0 23 24" fill="none" xmlns="http://www.w3.org/2000/svg">
<path fill-rule="evenodd" clip-rule="evenodd" d="M2.25325 24C3.39406 19.8962 7.10222 16.8889 11.5 16.8889C15.8986 16.8889 19.6062 19.8962 20.7468 24H23C21.8085 18.6563 17.1126 14.6667 11.5 14.6667C5.88837 14.6667 1.19175 18.6563 0 24H2.25325Z" fill="#8C6551"/>
<path fill-rule="evenodd" clip-rule="evenodd" d="M11.4999 2.22222C9.08776 2.22222 7.13237 4.21207 7.13237 6.66666C7.13237 9.12126 9.08776 11.1111 11.4999 11.1111C13.912 11.1111 15.8674 9.12126 15.8674 6.66666C15.8674 4.21207 13.912 2.22222 11.4999 2.22222ZM4.94862 6.66666C4.94862 2.98477 7.88171 0 11.4999 0C15.118 0 18.0511 2.98477 18.0511 6.66666C18.0511 10.3486 15.118 13.3333 11.4999 13.3333C7.88171 13.3333 4.94862 10.3486 4.94862 6.66666Z" fill="#8C6551"/>
</svg>
